<svg width="213" height="233" viewBox="0 0 213 233" fill="none" xmlns="http://www.w3.org/2000/svg">
<g clip-path="url(#clip0_2504_4265)">
<path d="M141.837 256.038C192.769 256.038 234.042 214.709 234.042 163.747C234.042 112.785 192.769 71.4559 141.837 71.4559C90.904 71.4559 49.6317 112.785 49.6317 163.747C49.6317 214.709 90.904 256.038 141.837 256.038Z" fill="#F8EFE5" stroke="#3C8AAC" stroke-width="18.8772"/>
<path d="M243.983 162.675C243.983 145.107 239.26 127.851 230.292 112.649C221.324 97.4478 208.43 84.8388 192.912 76.0931C177.395 67.3475 159.802 62.7739 141.91 62.8326C124.017 62.8913 106.841 67.4635 91.3828 76.3108" stroke="#1B1B1B" stroke-width="1.4"/>
<path d="M147.555 248.878C162.245 247.646 176.344 242.494 188.429 233.944C200.514 225.394 210.157 213.748 216.386 200.185C222.615 186.621 225.211 171.618 223.912 156.69C222.613 141.762 217.59 127.748 209.112 115.469" stroke="#1B1B1B" stroke-width="1.4"/>
<path d="M200.014 104.157C189.852 93.9849 177.077 86.7905 162.979 83.299C148.881 79.8075 133.96 80.1426 119.722 84.268C105.483 88.3933 92.4307 96.1633 81.8801 106.793C51.9936 141.203 52.4934 192.62 77.4266 214.088" stroke="#1B1B1B" stroke-width="1.4"/>
<path d="M70.0121 92.7182C57.5216 105.222 48.5701 120.825 44.0609 137.953C39.5518 155.081 39.6446 173.128 44.3292 190.271C49.0138 207.414 58.1246 223.048 70.7417 235.595C83.3588 248.141 99.0362 257.157 116.192 261.732" stroke="#1B1B1B" stroke-width="1.4"/>
<line x1="141.262" y1="96.3211" x2="141.262" y2="120.363" stroke="#1B1B1B" stroke-width="1.4" stroke-linecap="round"/>
<line x1="0.7" y1="-0.7" x2="11.224" y2="-0.7" transform="matrix(-0.532819 0.84623 -0.845729 -0.533612 173.602 109.609)" stroke="#1B1B1B" stroke-width="1.4" stroke-linecap="round"/>
<line x1="0.7" y1="-0.7" x2="11.2182" y2="-0.7" transform="matrix(-0.86862 0.495479 -0.494701 -0.869063 197.602 133.034)" stroke="#1B1B1B" stroke-width="1.4" stroke-linecap="round"/>
<line x1="0.7" y1="-0.7" x2="11.2181" y2="-0.7" transform="matrix(-0.873837 -0.486218 0.485446 -0.874267 197.797 198.43)" stroke="#1B1B1B" stroke-width="1.4" stroke-linecap="round"/>
<line x1="0.7" y1="-0.7" x2="11.2241" y2="-0.7" transform="matrix(-0.524985 -0.851111 0.850623 -0.525777 174.781 222.801)" stroke="#1B1B1B" stroke-width="1.4" stroke-linecap="round"/>
<line x1="0.7" y1="-0.7" x2="11.2242" y2="-0.7" transform="matrix(0.518606 -0.855014 0.854535 0.519395 109.078 222.668)" stroke="#1B1B1B" stroke-width="1.4" stroke-linecap="round"/>
<line x1="0.7" y1="-0.7" x2="11.2183" y2="-0.7" transform="matrix(0.865051 -0.501683 0.500902 0.865504 85.5547 198.841)" stroke="#1B1B1B" stroke-width="1.4" stroke-linecap="round"/>
<line x1="0.7" y1="-0.7" x2="11.2183" y2="-0.7" transform="matrix(0.865483 0.500938 -0.500158 0.865934 84.6484 133.785)" stroke="#1B1B1B" stroke-width="1.4" stroke-linecap="round"/>
<line x1="0.7" y1="-0.7" x2="11.2235" y2="-0.7" transform="matrix(0.572953 0.819588 -0.819028 0.573754 107.531 109.609)" stroke="#1B1B1B" stroke-width="1.4" stroke-linecap="round"/>
<line x1="72.6453" y1="166.156" x2="95.3897" y2="166.156" stroke="#1B1B1B" stroke-width="1.4" stroke-linecap="round"/>
<line x1="211.027" y1="166.286" x2="188.282" y2="166.286" stroke="#1B1B1B" stroke-width="1.4" stroke-linecap="round"/>
<line x1="141.136" y1="234.851" x2="141.136" y2="212.081" stroke="#1B1B1B" stroke-width="1.4" stroke-linecap="round"/>
<path opacity="0.7" fill-rule="evenodd" clip-rule="evenodd" d="M31.1418 69.1355C25.8714 71.3814 19.2442 71.7063 15.7375 67.2127C12.2292 62.7171 14.3474 56.5181 17.6448 51.8404C20.7437 47.4443 25.7695 44.1151 30.9063 45.6946C35.8198 47.2054 37.4394 52.8144 37.4909 57.9428C37.5384 62.6723 35.5131 67.2728 31.1418 69.1355Z" fill="#3C8AAC"/>
<path d="M6.84713 154.983C4.15229 154.983 1.96769 152.761 1.96769 150.02C1.96769 147.279 4.15229 145.058 6.84713 145.058C9.54197 145.058 11.7266 147.279 11.7266 150.02C11.7266 152.761 9.54197 154.983 6.84713 154.983Z" stroke="#1B1B1B" stroke-width="1.4" stroke-linecap="round" stroke-linejoin="round"/>
<path d="M152.857 38.1716C151.614 38.1716 150.605 37.1461 150.605 35.8812C150.605 34.6163 151.614 33.5908 152.857 33.5908C154.101 33.5908 155.109 34.6163 155.109 35.8812C155.109 37.1461 154.101 38.1716 152.857 38.1716Z" fill="#1B1B1B"/>
<path d="M97.7919 11.6741C94.6222 11.6741 92.0527 9.06075 92.0527 5.83704C92.0527 2.61333 94.6222 1.32445e-08 97.7919 8.53229e-09C100.962 3.82006e-09 103.531 2.61333 103.531 5.83704C103.531 9.06075 100.962 11.6741 97.7919 11.6741Z" fill="#EBC7B5"/>
<line x1="142" y1="143.934" x2="142" y2="172.934" stroke="#9B5C8F" stroke-width="6" stroke-linecap="round"/>
<line x1="125.735" y1="179.062" x2="141.129" y2="173.198" stroke="#9B5C8F" stroke-width="6" stroke-linecap="round"/>
</g>
<defs>
<clipPath id="clip0_2504_4265">
<rect width="213" height="233" fill="white"/>
</clipPath>
</defs>
</svg>
