<svg width="600" height="497" viewBox="0 0 600 497" fill="none" xmlns="http://www.w3.org/2000/svg">
<path d="M493.062 434.001L469.917 303.802" stroke="#1B1B1B" stroke-width="1.26531" stroke-linecap="round" stroke-linejoin="round"/>
<path d="M483.007 358.449C483.299 360.019 482.263 361.528 480.694 361.82C479.124 362.112 477.615 361.076 477.323 359.507L468.408 311.593C468.116 310.023 469.151 308.514 470.721 308.222C472.291 307.93 473.8 308.965 474.092 310.535L483.007 358.449Z" fill="#EBC7B5"/>
<path d="M477.236 468.057C476.844 467.446 476.409 466.863 475.936 466.312C494.555 346.221 524 309.585 524 309.585C504.782 360.303 486.146 433.221 477.564 468.566L477.236 468.057Z" fill="#F8EFE5"/>
<path d="M488.741 482.766C487.832 384.966 489.432 299.83 489.432 299.83C500.096 354.075 494.378 443.748 490.95 484.184C490.205 483.73 489.469 483.257 488.741 482.766Z" fill="#1B1B1B"/>
<path d="M499.531 483.747C499.531 483.747 498.677 349.375 476.486 279.793C476.486 279.811 485.886 377.847 499.531 483.747Z" fill="#F8EFE5"/>
<path d="M490.493 431.52L506.375 281.366" stroke="#1B1B1B" stroke-width="1.26531" stroke-linecap="round" stroke-linejoin="round"/>
<path d="M217.865 124.466C217.865 129.921 221.419 133.475 227.865 139.921C233.61 145.666 255.665 164.011 260.028 167.63L260.592 168.102L261.174 167.648C268.247 162.066 303.81 134.012 308.774 129.012C313.385 124.353 319.458 121.419 325.974 120.703L332.51 119.675L331.601 108.557H338.801V149.012L364.255 118.103L367.737 108.103H386.955L385.137 117.193L386.51 117.73L401.192 123.484C401.555 123.584 401.919 123.703 402.274 123.839L402.737 124.002C410.119 126.793 415.319 134.33 421.501 150.83C429.601 172.421 443.219 216.83 446.955 230.83C448.474 236.529 447.955 241.102 445.41 244.466C442.146 248.72 435.628 250.875 426.046 250.875C420.528 250.875 412.246 249.32 403.483 247.666C396.01 246.257 387.546 244.666 379.974 243.939L381.246 244.32L377.355 255.939C377.355 255.939 353.919 257.62 345.256 264.002C339.613 268.248 334.397 273.035 329.683 278.293L288.774 278.075L285.838 273.829C284.19 271.444 283.056 268.742 282.508 265.896C281.961 263.049 282.011 260.119 282.656 257.293L298.928 179.448L297.174 180.466C288.701 185.348 277.683 191.739 273.31 194.466C270.765 196.057 264.819 199.775 258.238 199.775C255.941 199.761 253.672 199.279 251.568 198.359C249.464 197.438 247.57 196.098 246.001 194.421C243.101 191.139 217.465 162.157 210.901 155.593C204.092 148.775 198.283 149.23 198.229 149.23C212.356 148.13 217.419 138.475 217.865 124.466ZM410.137 222.484L398.019 194.875L388.465 222.666L410.137 222.484Z" fill="#EBC7B5"/>
<path d="M361.724 247.647C363.542 246.738 365.488 244.011 365.488 244.011C365.488 244.011 367.079 237.256 363.606 232.674C360.133 228.093 352.17 225.302 352.17 225.302L331.897 232.984L320.024 238.211L310.297 247.647L302.624 259.311L303.452 262.038L304.97 262.42C304.97 262.42 307.524 262.156 307.524 261.511C307.524 260.865 317.406 252.42 317.406 252.42L325.479 245.374L323.452 253.438C323.298 254.077 323.306 254.743 323.475 255.378C323.643 256.013 323.966 256.596 324.415 257.074C325.933 258.593 331.915 261.165 331.915 261.165L340.597 263.993H345.288C345.288 263.993 347.897 259.784 347.897 258.193C347.897 256.602 346.27 253.438 346.27 253.438C351.621 252.089 356.804 250.146 361.724 247.647V247.647Z" fill="#F8EFE5"/>
<path d="M335.056 306.657C347.147 279.893 357.147 271.739 377.865 271.739H405.138C437.011 271.739 457.565 263.739 469.047 246.284C456.483 279.011 434.22 316.284 419.883 340.338L419.429 341.102C415.83 347.095 410.745 352.056 404.666 355.506C398.586 358.956 391.719 360.777 384.729 360.793L294.729 360.338C312.484 353.52 323.665 331.929 335.056 306.657Z" fill="#F8EFE5"/>
<path d="M358.891 124.584L338.772 149.011V123.529L358.891 124.584Z" fill="rgb(205, 205, 250)"/>
<path d="M216.016 136.003C216.016 136.003 212.253 149.394 199.771 149.303C187.289 149.212 184.444 146.658 184.444 146.658L175.098 139.149L171.926 137.43L167.617 136.003L166.771 132.167L160.408 129.894L157.68 127.894L139.035 109.203C139.035 109.203 135.562 107.076 139.517 107.076C143.471 107.076 143.898 107.303 143.898 107.303L154.117 115.485L152.098 107.03L157.553 108.103L162.298 117.385L161.962 114.03L165.553 113.003L168.28 115.976L170.017 121.203H173.353L174.789 119.012L177.444 120.376L178.162 121.394C178.162 121.394 194.344 122.894 198.262 121.312C202.18 119.73 202.689 116.676 202.18 115.067C201.671 113.458 197.289 104.867 196.726 103.13C196.162 101.394 195.644 98.5123 196.953 97.3214C197.313 96.9813 197.745 96.7282 198.218 96.5817C198.691 96.4351 199.191 96.3989 199.68 96.476L209.544 110.267C209.544 110.267 216.289 119.94 216.771 121.585C217.253 123.23 218.526 132.021 216.016 136.003Z" fill="#F8EFE5"/>
<path d="M75.4879 251.647C75.4879 262.72 86.6243 271.702 100.37 271.702C114.115 271.702 125.297 262.72 125.297 251.647H75.4879Z" fill="#F8EFE5"/>
<path d="M100.365 271.703H107.529C108.648 271.702 109.756 271.921 110.79 272.349C111.824 272.777 112.763 273.404 113.555 274.195C114.346 274.987 114.973 275.926 115.401 276.96C115.829 277.994 116.048 279.102 116.047 280.221H84.6833C84.6833 277.962 85.5807 275.796 87.1782 274.198C88.7757 272.601 90.9423 271.703 93.2015 271.703H100.365Z" fill="#F8EFE5"/>
<path d="M100.358 271.701C100.358 271.701 102.03 272.21 104.185 272.819C108.467 274.019 114.667 275.547 113.549 274.219L113.44 274.101C113.052 273.73 112.729 273.297 112.485 272.819C112.307 272.435 112.229 272.012 112.258 271.589C112.287 271.167 112.421 270.758 112.649 270.401C113.416 269.244 114.416 268.26 115.585 267.51C116.049 267.165 116.567 266.81 117.149 266.447L117.221 266.392L117.694 266.037C118.455 265.195 119.295 264.428 120.203 263.747L108.385 261.674L101.412 270.401L100.358 271.701Z" fill="#F8EFE5"/>
<path d="M80.5258 263.747C81.4104 264.396 82.224 265.136 82.953 265.956L83.5621 266.429H83.6257C84.153 266.756 84.6348 267.083 85.0621 267.401C86.2537 268.163 87.2751 269.163 88.0621 270.338C88.2898 270.695 88.4241 271.103 88.4527 271.526C88.4813 271.948 88.4032 272.371 88.2257 272.756C87.9953 273.23 87.6882 273.663 87.3166 274.038L87.2076 274.156C86.0894 275.519 92.2893 273.956 96.5712 272.756C98.7257 272.147 100.398 271.638 100.398 271.638L99.3621 270.338L92.3894 261.61L80.5258 263.747Z" fill="#F8EFE5"/>
<path d="M75.4852 249.229H125.258V251.648H75.4852V249.229Z" fill="#1B1B1B"/>
<path d="M88.2381 272.838H112.493C112.315 272.454 112.237 272.031 112.266 271.608C112.294 271.186 112.429 270.777 112.656 270.42H88.1109C88.3328 270.78 88.4608 271.19 88.483 271.613C88.5052 272.035 88.421 272.457 88.2381 272.838V272.838Z" fill="#1B1B1B"/>
<path d="M109.454 495.293H133.172L129.454 493.838L116.045 494.011L109.79 493.838L109.799 485.702L116.045 478.257V287.457H109.454V491.738H95.0629L92.1811 495.293H109.454Z" fill="#1B1B1B" stroke="#1B1B1B" stroke-width="1.4059" stroke-linecap="round" stroke-linejoin="round"/>
<path d="M186.377 485.856C183.708 485.279 180.928 485.516 178.396 486.538L177.868 486.656H177.541C176.477 486.656 175.405 486.656 174.332 486.547C172.014 486.401 169.705 486.138 167.386 485.965C160.65 485.456 154.432 485.056 147.696 485.965C135.45 487.647 122.305 485.901 109.796 485.683V481.829C109.796 479.956 109.45 477.738 112.75 475.465C116.05 473.192 119.905 472.447 130.932 470.083C141.959 467.719 151.041 459.492 151.041 459.492L151.75 452.556L154.068 451.02H166.95V458.974H178.768L185.814 459.42L189.25 470.329L188.268 481.483L186.377 485.856Z" fill="#F8EFE5"/>
<path d="M304.812 324.466L253.222 324.602L248.585 328.72C248.585 328.72 238.931 345.566 239.767 345.566H272.867C273.931 345.566 283.367 343.748 286.922 341.766C290.476 339.784 299.912 331.366 299.912 331.366L304.812 324.466Z" fill="#F8EFE5"/>
<path d="M55.595 277.492V287.492H150.267C150.267 287.492 149.413 284.574 150.977 277.492H55.595Z" fill="#EBC7B5"/>
<path d="M166.497 453.557L166.951 459.011L177.106 457.993C177.106 457.993 178.46 453.557 175.56 453.557H166.497Z" fill="#1B1B1B"/>
<path d="M470.216 439.448C470.325 443.987 470.543 448.533 470.871 453.084C471.301 459.145 471.907 465.226 472.689 471.329C472.771 471.939 472.853 472.539 472.943 473.148C473.943 480.354 475.216 487.584 476.762 494.839H506.198C507.743 487.566 509.016 480.336 510.016 473.148C510.107 472.539 510.189 471.939 510.271 471.329C511.083 465.239 511.689 459.157 512.089 453.084C512.416 448.533 512.634 443.987 512.743 439.448C513.258 418.187 511.429 396.935 507.289 376.075C506.943 374.257 506.574 372.463 506.18 370.693H476.78C476.386 372.512 476.016 374.305 475.671 376.075C471.531 396.935 469.702 418.187 470.216 439.448V439.448Z" fill="#F8EFE5"/>
<path d="M470.876 453.083C471.306 459.144 471.912 465.225 472.694 471.328C472.776 471.938 472.857 472.538 472.948 473.147H510.021C510.112 472.538 510.194 471.938 510.276 471.328C511.088 465.238 511.694 459.156 512.094 453.083H470.876Z" fill="#1B1B1B"/>
<path d="M475.694 376.075H507.312C506.967 374.257 506.597 372.463 506.203 370.693H476.803C476.403 372.487 476.034 374.281 475.694 376.075Z" fill="#1B1B1B"/>
<path d="M501.842 292.739C502.04 290.871 503.712 289.518 505.577 289.715C507.441 289.912 508.793 291.586 508.595 293.453L502.571 350.39C502.373 352.257 500.701 353.611 498.837 353.414C496.972 353.216 495.62 351.543 495.818 349.675L501.842 292.739Z" fill="#EBC7B5"/>
<path d="M160.722 70.9285C152.909 70.9285 146.576 64.5954 146.576 56.7831C146.576 48.9708 152.909 42.6377 160.722 42.6377C168.534 42.6377 174.867 48.9708 174.867 56.7831C174.867 64.5954 168.534 70.9285 160.722 70.9285Z" fill="#0F86A1"/>
<path d="M189.199 48.5372C183.968 48.5372 179.726 44.2961 179.726 39.0645C179.726 33.8329 183.968 29.5918 189.199 29.5918C194.431 29.5918 198.672 33.8329 198.672 39.0645C198.672 44.2961 194.431 48.5372 189.199 48.5372Z" stroke="#1B1B1B" stroke-width="1.4059" stroke-linecap="round" stroke-linejoin="round"/>
<path d="M146.576 30.4112C143.96 30.4112 141.84 28.2906 141.84 25.6748C141.84 23.059 143.96 20.9385 146.576 20.9385C149.192 20.9385 151.312 23.059 151.312 25.6748C151.312 28.2906 149.192 30.4112 146.576 30.4112Z" fill="#1B1B1B"/>
<path d="M162.714 76.8011C146.954 76.8011 134.177 64.025 134.177 48.2648C134.177 32.5047 146.954 19.7285 162.714 19.7285C178.474 19.7285 191.25 32.5047 191.25 48.2648C191.25 64.025 178.474 76.8011 162.714 76.8011Z" stroke="#1B1B1B" stroke-width="1.25828" stroke-linecap="round" stroke-linejoin="round"/>
<path d="M146.862 75.0194C142.64 75.0194 139.217 71.5964 139.217 67.374C139.217 63.1515 142.64 59.7285 146.862 59.7285C151.085 59.7285 154.508 63.1515 154.508 67.374C154.508 71.5964 151.085 75.0194 146.862 75.0194Z" fill="#EBC7B5"/>
<path d="M348.838 128.557L338.774 123.53V110.939V98.2934H334.174C334.174 98.2934 328.574 89.957 328.574 89.3752C328.574 88.7934 324.029 79.0025 323.583 76.248C323.138 73.4934 321.838 67.3389 322.238 62.4571C322.638 57.5753 322.692 56.7571 322.692 56.7571L320.874 48.5753L322.756 34.5026L318.365 31.5117C318.365 31.5117 313.656 26.739 313.656 21.639C313.656 16.539 315.202 11.2299 317.465 8.95721C319.729 6.68449 328.201 -0.179133 341.765 1.17541C355.329 2.52995 371.174 14.1299 371.174 14.1299L374.356 13.2208C374.356 13.2208 384.547 15.1299 389.683 23.2844C394.82 31.439 393.32 53.2844 393.32 53.2844L392.31 57.3207V59.6207L391.465 63.1298L388.865 63.4116C388.865 63.4116 388.356 70.9843 384.72 74.1571C381.083 77.3298 381.501 77.9025 381.501 77.9025V108.112H367.71L364.229 118.112L348.838 135.875L346.765 131.266L348.838 128.557Z" fill="#F8EFE5"/>
<path d="M282.414 361.736H232.969" stroke="#1B1B1B" stroke-width="1.4059" stroke-linecap="round" stroke-linejoin="round"/>
<path d="M440.75 265.983C431.05 269.22 419.268 270.829 405.141 270.829H377.868C357.868 270.829 346.959 278.102 334.232 306.283C327.468 321.274 320.441 336.001 311.505 346.51" stroke="#1B1B1B" stroke-width="1.4059" stroke-linecap="round" stroke-linejoin="round"/>
<path d="M417.005 135.865C474.341 144.538 484.369 191.565 477.005 224.465" stroke="#1B1B1B" stroke-width="1.4059" stroke-linecap="round" stroke-linejoin="round"/>
<path d="M436.083 156.664C440.327 158.722 444.272 161.346 447.81 164.464C460.692 175.928 465.083 193.437 463.374 210.309C460.428 240.027 446.101 255.764 402.465 255.764H375.192C355.192 255.764 332.401 265.764 319.738 293.946C306.047 324.464 298.174 345.527 267.92 345.527H240.647" stroke="#1B1B1B" stroke-width="1.4059" stroke-linecap="round" stroke-linejoin="round"/>
<path d="M295.517 195.874L301.508 167.192Z" fill="rgb(205, 205, 250)"/>
<path d="M295.517 195.874L301.508 167.192" stroke="#1B1B1B" stroke-width="1.4059" stroke-linecap="round" stroke-linejoin="round"/>
<path d="M332.458 118.992L331.585 108.556H338.776V149.011L364.23 118.102L367.721 108.102H386.203" stroke="#1B1B1B" stroke-width="1.4059" stroke-linecap="round" stroke-linejoin="round"/>
<path d="M203.102 413.32C207.975 426.856 211.284 435.72 211.284 435.72C225.248 437.665 234.875 433.674 240.375 423.992L229.02 373.247" fill="#1B1B1B"/>
<path d="M203.102 413.32C207.975 426.856 211.284 435.72 211.284 435.72C225.248 437.665 234.875 433.674 240.375 423.992L229.02 373.247" stroke="#1B1B1B" stroke-width="1.4059" stroke-linecap="round" stroke-linejoin="round"/>
<path d="M326.626 242.056C326.626 242.056 324.236 250.047 323.517 254.192C323.37 254.994 323.514 255.823 323.924 256.528C324.335 257.234 324.983 257.769 325.754 258.037L329.672 259.31" stroke="#1B1B1B" stroke-width="1.4059" stroke-linecap="round" stroke-linejoin="round"/>
<path d="M331.97 244.274C331.97 244.274 329.579 252.265 328.87 256.411C328.718 257.212 328.86 258.042 329.269 258.748C329.678 259.454 330.327 259.989 331.097 260.256L335.016 261.529" stroke="#1B1B1B" stroke-width="1.4059" stroke-linecap="round" stroke-linejoin="round"/>
<path d="M337.275 247.456C336.045 251.119 335.025 254.849 334.22 258.629C334.07 259.431 334.212 260.261 334.621 260.968C335.029 261.675 335.677 262.213 336.448 262.483L341.602 264.156C342.44 264.412 343.341 264.356 344.141 264.001C344.941 263.645 345.586 263.013 345.957 262.22L347.675 258.683C347.944 258.133 348.021 257.509 347.892 256.91C347.764 256.312 347.437 255.774 346.966 255.383L346.457 254.965C345.976 254.571 345.36 254.381 344.741 254.433C344.121 254.486 343.547 254.778 343.139 255.247L341.32 257.265" stroke="#1B1B1B" stroke-width="1.4059" stroke-linecap="round" stroke-linejoin="round"/>
<path opacity="0.84" d="M177.95 121.493C186.332 121.811 193.332 121.975 196.95 121.548C197.782 121.482 198.587 121.227 199.304 120.801C200.021 120.375 200.631 119.791 201.087 119.093C201.707 118.138 202.052 117.03 202.084 115.891C202.116 114.753 201.834 113.627 201.269 112.639C199.614 109.611 196.723 103.984 196.041 100.948C195.814 100.148 195.852 99.2965 196.148 98.5199C196.445 97.7434 196.984 97.0835 197.687 96.6387C198.153 96.3284 198.722 96.2127 199.272 96.3163C199.823 96.42 200.311 96.7347 200.632 97.1932L215.732 119.293C217.123 121.33 217.859 126.111 217.859 126.111C217.859 143.02 208.041 148.839 198.223 149.211C194.359 149.357 201.078 149.293 198.223 149.211C194.832 149.111 185.659 147.975 183.096 145.875L176.069 140.12C175.213 139.414 174.525 138.526 174.053 137.522C173.582 136.517 173.338 135.421 173.341 134.311V120.33C173.353 119.96 173.511 119.61 173.78 119.356C174.049 119.102 174.408 118.965 174.778 118.975V118.975C175.52 118.958 176.246 119.2 176.83 119.659C177.414 120.119 177.82 120.767 177.978 121.493C178.777 125.772 179.353 130.09 179.705 134.43C179.705 134.43 185.159 138.72 186.978 140.439" stroke="#1B1B1B" stroke-width="1.36372" stroke-linecap="round" stroke-linejoin="round"/>
<path opacity="0.84" d="M158.844 128.111L157.726 127.893C156.637 127.685 155.634 127.16 154.844 126.384C149.626 121.247 141.944 112.493 139.044 109.111C138.905 108.95 138.806 108.759 138.754 108.554C138.703 108.348 138.7 108.133 138.747 107.926C138.794 107.719 138.889 107.525 139.024 107.362C139.159 107.198 139.331 107.069 139.526 106.984C140.219 106.661 140.981 106.513 141.745 106.552C142.509 106.592 143.251 106.818 143.907 107.211C147.49 109.574 150.86 112.245 153.98 115.193" stroke="#1B1B1B" stroke-width="1.36372" stroke-linecap="round" stroke-linejoin="round"/>
<path d="M166.773 132.165L163.083 131.465C162.339 131.333 161.641 131.014 161.055 130.536C160.469 130.059 160.016 129.44 159.737 128.737L152.192 108.737C152.117 108.527 152.095 108.301 152.128 108.08C152.161 107.859 152.248 107.65 152.381 107.47C152.514 107.291 152.688 107.147 152.89 107.051C153.092 106.955 153.314 106.909 153.537 106.919H155.001C155.585 106.911 156.162 107.059 156.67 107.349C157.178 107.638 157.6 108.058 157.892 108.565C159.655 111.737 163.346 118.756 164.137 122.537" stroke="#1B1B1B" stroke-width="1.36372" stroke-linecap="round" stroke-linejoin="round"/>
<path d="M173.32 137.866L170.184 136.876C169.488 136.668 168.854 136.288 168.343 135.772C167.831 135.256 167.458 134.619 167.257 133.921L161.966 114.657C161.918 114.451 161.919 114.237 161.967 114.031C162.016 113.825 162.111 113.633 162.245 113.47C162.38 113.306 162.55 113.176 162.742 113.089C162.935 113.002 163.145 112.96 163.357 112.967H164.684C165.34 112.957 165.984 113.147 166.531 113.51C167.078 113.874 167.502 114.394 167.748 115.003C168.657 117.494 170.302 121.857 171.502 125.848L173.32 131.857" stroke="#1B1B1B" stroke-width="1.36372" stroke-linecap="round" stroke-linejoin="round"/>
<path d="M267.35 197.675C269.42 196.76 271.417 195.687 273.323 194.466C274.895 193.484 285.432 187.302 288.25 185.639" stroke="#1B1B1B" stroke-width="1.4059" stroke-linecap="round" stroke-linejoin="round"/>
<path d="M198.23 149.201C198.23 149.201 203.967 148.646 210.957 155.565C214.276 158.892 222.457 167.928 230.094 176.474" stroke="#1B1B1B" stroke-width="1.4059" stroke-linecap="round" stroke-linejoin="round"/>
<path d="M264 170.71C264 170.71 234.227 146.283 227.864 139.919C221.5 133.556 217.864 129.919 217.864 124.465" stroke="#1B1B1B" stroke-width="1.4059" stroke-linecap="round" stroke-linejoin="round"/>
<path d="M365.414 244.538C363.241 245.529 362.187 246.611 360.032 248.456C357.73 250.358 355.053 251.756 352.177 252.559C349.3 253.363 346.287 253.554 343.332 253.12L340.605 258.865" stroke="#1B1B1B" stroke-width="1.4059" stroke-linecap="round" stroke-linejoin="round"/>
<path d="M446.96 230.829C450.596 244.465 442.414 250.829 426.051 250.829C413.323 250.829 386.514 242.647 369.687 243.556C368.215 243.62 366.767 243.953 365.414 244.538" stroke="#1B1B1B" stroke-width="1.4059" stroke-linecap="round" stroke-linejoin="round"/>
<path d="M352.177 225.301C354.94 224.528 357.753 223.945 360.595 223.555C374.232 221.737 410.141 222.482 410.141 222.482C410.141 222.482 398.632 195.11 386.923 171.246" stroke="#1B1B1B" stroke-width="1.4059" stroke-linecap="round" stroke-linejoin="round"/>
<path d="M325.35 246.547L317.286 251.91C317.085 252.081 316.897 252.266 316.723 252.465L308.795 260.837C308.193 261.535 307.396 262.036 306.506 262.276C305.617 262.515 304.676 262.483 303.805 262.183L303.459 262.056C303.204 261.955 302.975 261.798 302.789 261.597C302.604 261.395 302.466 261.154 302.386 260.892C302.307 260.63 302.287 260.353 302.33 260.082C302.372 259.811 302.476 259.554 302.632 259.328C304.777 256.274 307.895 251.228 312.441 246.437C317.895 240.701 320.368 238.51 324.259 236.874C331.468 233.838 341.532 228.392 352.195 225.319" stroke="#1B1B1B" stroke-width="1.4059" stroke-linecap="round" stroke-linejoin="round"/>
<path d="M329.688 278.292H236.642C231.902 278.49 227.332 280.11 223.525 282.941C219.718 285.771 216.851 289.682 215.297 294.165L158.779 449.01C166.733 455.319 175.815 459.01 186.961 459.01L248.933 328.01C249.435 326.949 250.227 326.053 251.219 325.425C252.21 324.797 253.36 324.464 254.533 324.465H304.815C312.76 309.574 315.251 303.892 319.742 293.946C322.23 288.246 325.585 282.966 329.688 278.292Z" fill="#1B1B1B" stroke="#1B1B1B" stroke-width="1.4059" stroke-linecap="round" stroke-linejoin="round"/>
<path d="M207.873 417.265L233.109 363.901" stroke="#F8EFE5" stroke-width="1.4059" stroke-linecap="round" stroke-linejoin="round"/>
<path d="M269.074 223.283C276.694 218.673 283.766 213.213 290.156 207.011" stroke="#1B1B1B" stroke-width="1.4059" stroke-linecap="round" stroke-linejoin="round"/>
<path d="M161.656 268.51C153.829 276.119 148.02 286.81 150.747 301.282C153.993 318.101 161.265 336.691 176.202 348.464C190.22 359.5 187.411 357.419 187.411 357.419" stroke="#1B1B1B" stroke-width="1.4059" stroke-linecap="round" stroke-linejoin="round"/>
<path d="M264.229 361.738H384.729C391.876 361.735 398.899 359.878 405.114 356.349C411.328 352.819 416.52 347.738 420.183 341.602C437.574 312.438 467.274 262.829 476.547 226.093" stroke="#1B1B1B" stroke-width="1.4059" stroke-linecap="round" stroke-linejoin="round"/>
<path d="M338.773 127.192V102.419" stroke="#1B1B1B" stroke-width="1.4059" stroke-linecap="round" stroke-linejoin="round"/>
<path d="M381.5 108.102V70.8018" stroke="#1B1B1B" stroke-width="1.4059" stroke-linecap="round" stroke-linejoin="round"/>
<path d="M181.178 385.947C182.26 373.047 178.951 361.074 164.951 337.547C169.415 342.59 174.37 347.176 179.742 351.238C187.478 356.801 187.433 357.42 187.433 357.42L192.188 375.256L183.551 385.947H181.178Z" fill="#1B1B1B" stroke="#1B1B1B" stroke-width="1.4059" stroke-linecap="round" stroke-linejoin="round"/>
<path d="M272.862 361.736C281.499 361.736 297.717 361.736 297.717 383.709C297.717 405.682 294.517 495.291 294.517 495.291H301.79C301.79 495.291 304.99 401.927 304.99 383.745C304.99 361.773 326.953 361.773 326.953 361.773L272.862 361.736Z" fill="#1B1B1B" stroke="#1B1B1B" stroke-width="1.4059" stroke-linecap="round" stroke-linejoin="round"/>
<path d="M267.447 361.736C267.447 361.736 277.284 361.818 274.602 374.718L244.675 495.291H250.584L281.165 375.764C282.123 371.258 284.589 367.214 288.156 364.3L282.411 361.736H267.447Z" fill="#1B1B1B" stroke="#1B1B1B" stroke-width="1.4059" stroke-linecap="round" stroke-linejoin="round"/>
<path d="M0.999986 494.999L519 494.999" stroke="#1B1B1B" stroke-width="1.4059" stroke-linecap="round" stroke-linejoin="round"/>
<path opacity="0.83" d="M370.401 361.738C370.401 361.738 373.21 361.865 377.965 361.829C389.837 361.738 396.147 380.293 396.147 380.293L432.828 495.292H440.383C440.383 495.292 418.71 426.474 410.383 400.483C402.056 374.493 401.165 373.62 423.965 335.302C423.965 335.302 414.474 354.338 398.237 359.247C386.201 364.656 370.401 361.738 370.401 361.738Z" fill="#1B1B1B" stroke="#1B1B1B" stroke-width="1.4059" stroke-linecap="round" stroke-linejoin="round"/>
<path d="M112.758 475.492C116.049 473.219 119.913 472.474 130.94 470.11C141.967 467.747 151.049 459.52 151.049 459.52L151.758 452.583L154.076 451.02H164.54L166.44 452.038L166.958 458.974H178.776L185.821 459.42L189.258 470.329L188.276 481.483L186.167 486.31C184.338 485.896 182.447 485.831 180.594 486.119C176.049 486.819 160.594 486.647 159.912 486.538H160.031C157.444 486.096 154.789 486.289 152.294 487.101C149.694 487.047 147.103 486.992 144.549 486.965C138.476 486.91 132.44 486.529 126.367 486.274C120.849 486.056 115.34 486.274 109.822 486.174V485.592V481.783C109.84 479.974 109.458 477.756 112.758 475.492Z" fill="#F8EFE5"/>
<path d="M181.393 494.01H113.893C112.717 494.01 111.588 493.543 110.756 492.711C109.924 491.879 109.457 490.751 109.457 489.574V486.283H185.82V489.574C185.821 490.156 185.708 490.733 185.486 491.271C185.264 491.809 184.938 492.298 184.527 492.711C184.116 493.123 183.627 493.45 183.089 493.673C182.552 493.896 181.975 494.01 181.393 494.01Z" stroke="#1B1B1B" stroke-width="1.4059" stroke-linecap="round" stroke-linejoin="round"/>
<path d="M185.823 486.282C190.523 483.092 190.686 459.219 184.523 459.01H166.959" stroke="#1B1B1B" stroke-width="1.4059" stroke-linecap="round" stroke-linejoin="round"/>
<path d="M166.961 461.701V453.601C166.966 453.262 166.902 452.925 166.775 452.61C166.647 452.295 166.458 452.009 166.219 451.768C165.979 451.528 165.693 451.337 165.379 451.209C165.065 451.08 164.728 451.016 164.388 451.02H154.052C153.39 451.022 152.757 451.287 152.29 451.755C151.823 452.224 151.561 452.858 151.561 453.52V458.974L144.697 463.356C139.224 466.855 133.271 469.538 127.024 471.32L113.234 475.247C112.125 475.627 111.163 476.344 110.482 477.298C109.801 478.251 109.434 479.393 109.434 480.565V486.247" stroke="#1B1B1B" stroke-width="1.4059" stroke-linecap="round" stroke-linejoin="round"/>
<path d="M238.173 427.283L239.991 433.156C240.165 433.964 240.018 434.808 239.582 435.51C237.719 438.907 234.924 441.701 231.528 443.565" stroke="#1B1B1B" stroke-width="1.4059" stroke-linecap="round" stroke-linejoin="round"/>
<path d="M214.542 436.065L215.633 439.284" stroke="#1B1B1B" stroke-width="1.4059" stroke-linecap="round" stroke-linejoin="round"/>
<path d="M337.237 230.666C340.906 229.628 344.426 228.121 347.71 226.184L367.874 146.129C374.383 118.384 396.301 121.929 402.273 123.838C401.919 123.702 401.555 123.584 401.192 123.484L388.019 118.293C386.94 117.867 385.788 117.657 384.628 117.675C373.592 117.866 365.974 124.175 360.937 140.002C358.992 146.12 346.701 194.411 337.237 230.666Z" fill="#1B1B1B"/>
<path d="M326.61 271.438C326.61 271.438 327.519 267.501 329.674 259.311C332.389 261 335.318 262.318 338.383 263.229L336.565 270.338L326.61 271.438Z" fill="#1B1B1B"/>
<path d="M315.602 132.047C317.82 123.793 320.339 119.184 332.875 118.411V119.529C329.02 121.447 325.602 125.52 323.893 133.384L297.293 272.093L290.166 271.383C290.166 271.383 312.921 142.084 315.602 132.047Z" fill="#1B1B1B"/>
<path d="M315.406 254.538L311.661 271.438" stroke="#1B1B1B" stroke-width="1.4059" stroke-linecap="round" stroke-linejoin="round"/>
<path d="M338.773 149.011L318.737 239.465" stroke="#1B1B1B" stroke-width="1.4059" stroke-linecap="round" stroke-linejoin="round"/>
<path d="M365.413 244.538C365.413 244.538 368.613 228.111 352.176 225.302" stroke="#1B1B1B" stroke-width="1.4059" stroke-linecap="round" stroke-linejoin="round"/>
<path d="M403.553 222.484L419.008 222.739" stroke="#1B1B1B" stroke-width="1.4059" stroke-linecap="round" stroke-linejoin="round"/>
<path d="M173.32 121.165H170.539" stroke="#1B1B1B" stroke-width="1.36372" stroke-linecap="round" stroke-linejoin="round"/>
<path d="M198.929 382.519L230.411 301.755L250.047 288.119L245.711 282.037L203.347 276.473C187.12 274.319 166.983 286.028 180.056 332.701C184.265 347.755 186.602 357.01 192.247 373.828" fill="#1B1B1B"/>
<path d="M198.929 382.519L230.411 301.755L250.047 288.119L245.711 282.037L203.347 276.473C187.12 274.319 166.983 286.028 180.056 332.701C184.265 347.755 186.602 357.01 192.247 373.828" stroke="#1B1B1B" stroke-width="1.4059" stroke-linecap="round" stroke-linejoin="round"/>
<path d="M237.852 278.347H236.642C231.909 278.541 227.343 280.152 223.537 282.973C219.731 285.793 216.86 289.693 215.297 294.165L176.624 395.074" stroke="#F8EFE5" stroke-width="1.4059" stroke-linecap="round" stroke-linejoin="round"/>
<path d="M329.683 278.292H169.974C168.806 278.293 167.662 277.956 166.68 277.322C165.697 276.688 164.919 275.785 164.438 274.72L125.884 189.42C125.605 188.805 125.484 188.13 125.53 187.456C125.577 186.782 125.79 186.13 126.15 185.559C126.511 184.988 127.007 184.515 127.595 184.183C128.183 183.851 128.845 183.67 129.52 183.656L246.056 182.02C247.398 182.006 248.715 182.384 249.845 183.108C250.975 183.831 251.87 184.868 252.42 186.093L290.601 271.438H335.492L329.683 278.292Z" fill="#F8EFE5" stroke="#1B1B1B" stroke-width="1.4" stroke-linecap="round" stroke-linejoin="round"/>
<path d="M340.227 69.147C338.408 70.6016 335.208 70.8925 333.79 70.7834C332.072 70.6561 331.572 69.6743 331.599 68.5561C331.721 63.1256 332.262 57.7125 333.217 52.3652" stroke="#1B1B1B" stroke-width="1.4059" stroke-linecap="round" stroke-linejoin="round"/>
<path d="M331.594 46.4742C330.327 45.8087 328.897 45.5193 327.471 45.6401C326.046 45.7609 324.685 46.2869 323.548 47.1561" stroke="#1B1B1B" stroke-width="1.4059" stroke-linecap="round" stroke-linejoin="round"/>
<path d="M385.902 53.6016C385.905 52.6869 385.823 51.7739 385.656 50.8744C385.656 49.9107 385.656 48.9653 385.656 48.0107L401.902 63.4653C402.085 63.6522 402.188 63.9035 402.187 64.1652C402.188 64.427 402.085 64.6783 401.902 64.8652L400.52 66.2834C400.334 66.4661 400.085 66.5685 399.824 66.5685C399.564 66.5685 399.314 66.4661 399.129 66.2834L385.865 53.638C385.865 53.638 385.902 53.638 385.902 53.6016Z" fill="#EBC7B5"/>
<path d="M366.003 29.2018L377.312 40.1109C376.67 40.3432 376.087 40.7135 375.603 41.1957C375.119 41.6778 374.747 42.2602 374.513 42.9018L363.276 32.1018L360.031 26.2109L366.003 29.2018Z" fill="#EBC7B5"/>
<path d="M399.146 66.3383C399.331 66.521 399.581 66.6234 399.841 66.6234C400.101 66.6234 400.351 66.521 400.536 66.3383L401.918 64.9111C402.011 64.8205 402.085 64.7123 402.135 64.5929C402.185 64.4734 402.211 64.3452 402.211 64.2156C402.211 64.0861 402.185 63.9578 402.135 63.8384C402.085 63.7189 402.011 63.6108 401.918 63.5202L395.709 57.6475C395.815 57.8285 395.859 58.0392 395.835 58.2476C395.81 58.456 395.718 58.6506 395.573 58.802L394.2 60.2202C394.014 60.4056 393.763 60.5097 393.5 60.5097C393.238 60.5097 392.986 60.4056 392.8 60.2202L399.146 66.3383Z" fill="#1B1B1B"/>
<path d="M360.027 26.1924L363.273 32.0833L366 29.2287L360.027 26.1924Z" fill="#1B1B1B"/>
<path d="M331.189 20.293C327.59 24.0346 324.812 28.4855 323.03 33.3614C321.249 38.2373 320.504 43.4311 320.843 48.6111C320.843 48.6111 322.661 54.6656 322.661 56.7929C322.661 58.9201 320.907 65.9838 324.089 77.4928C326.011 84.0782 328.705 90.4131 332.116 96.3655C332.559 97.1471 333.201 97.7972 333.977 98.2492C334.753 98.7012 335.636 98.939 336.534 98.9382H346.616C349.334 98.9378 351.983 98.0822 354.189 96.4928C360.325 92.0928 372.725 82.9474 374.77 79.5747C377.498 75.0292 377.57 67.6474 377.57 67.6474" stroke="#1B1B1B" stroke-width="1.4059" stroke-linecap="round" stroke-linejoin="round"/>
<path d="M377.759 62.4924C380.223 62.4924 381.805 61.1651 383.668 58.9651C385.387 56.9561 386.741 53.7924 386.05 48.0561C384.578 35.7379 372.941 37.7561 372.941 47.3743" stroke="#1B1B1B" stroke-width="1.4059" stroke-linecap="round" stroke-linejoin="round"/>
<path d="M373.477 43.9842C373.477 43.9842 364.458 49.4387 355.368 31.5479" stroke="#1B1B1B" stroke-width="1.4059" stroke-linecap="round" stroke-linejoin="round"/>
<path d="M351.484 27.893C351.484 27.893 334.33 12.9657 322.721 24.5748" stroke="#1B1B1B" stroke-width="1.4059" stroke-linecap="round" stroke-linejoin="round"/>
<path d="M339.462 46.3382C343.707 45.0564 349.462 45.4291 351.489 46.1291C353.516 46.8291 358.18 51.7382 358.18 51.7382" stroke="#1B1B1B" stroke-width="1.4059" stroke-linecap="round" stroke-linejoin="round"/>
<path d="M383.812 74.575C383.812 74.575 390.685 72.1841 388.403 63.4023" stroke="#1B1B1B" stroke-width="1.4059" stroke-linecap="round" stroke-linejoin="round"/>
<path d="M393.156 67.9019C392.886 66.2189 392.313 64.5987 391.465 63.1201" stroke="#1B1B1B" stroke-width="1.4059" stroke-linecap="round" stroke-linejoin="round"/>
<path d="M372.939 13.0283C389.157 14.8465 393.32 29.1646 393.32 35.3737V53.2737" stroke="#1B1B1B" stroke-width="1.4059" stroke-linecap="round" stroke-linejoin="round"/>
<path d="M375.445 17.72C375.445 17.72 365.954 8.71098 353.8 3.93826C341.645 -0.834455 324.618 -0.234456 317.109 9.39279C309.6 19.02 315.4 28.6655 319 32.2655" stroke="#1B1B1B" stroke-width="1.4059" stroke-linecap="round" stroke-linejoin="round"/>
<path d="M335.174 78.4562C340.964 79.2562 344.792 77.8926 346.228 77.8926C347.664 77.8926 346.228 83.1835 341.328 83.9107C340.031 84.068 338.714 83.9089 337.492 83.4471" stroke="#1B1B1B" stroke-width="1.4059" stroke-linecap="round" stroke-linejoin="round"/>
<path d="M345.245 55.5409C344.959 54.2157 345.444 52.9871 346.327 52.7967C347.211 52.6063 348.158 53.5263 348.444 54.8515C348.729 56.1767 348.245 57.4053 347.361 57.5957C346.478 57.786 345.53 56.8661 345.245 55.5409Z" fill="#1B1B1B"/>
<path d="M326.026 56.244C325.74 54.9188 326.225 53.6902 327.108 53.4999C327.992 53.3095 328.94 54.2295 329.225 55.5547C329.511 56.8798 329.026 58.1084 328.143 58.2988C327.259 58.4892 326.311 57.5692 326.026 56.244Z" fill="#1B1B1B"/>
<path d="M149.519 460.327L158.773 470.827" stroke="#1B1B1B" stroke-width="1.4059" stroke-linecap="round" stroke-linejoin="round"/>
<path d="M143.317 464.438L150.117 472.765" stroke="#1B1B1B" stroke-width="1.4059" stroke-linecap="round" stroke-linejoin="round"/>
<path d="M138.238 467.828L142.992 474.228" stroke="#1B1B1B" stroke-width="1.4059" stroke-linecap="round" stroke-linejoin="round"/>
<path d="M197.58 241.41C190.602 235.588 188.231 226.931 192.284 222.073C196.336 217.216 205.278 217.998 212.256 223.82C219.234 229.642 221.605 238.299 217.552 243.157C213.5 248.014 204.557 247.232 197.58 241.41Z" fill="#EBC7B5"/>
<path d="M147.909 209.919H165.109L157.346 192.71H140.137L147.909 209.919Z" fill="#EBC7B5"/>
<path d="M141.433 195.446H158.633L157.351 192.71H140.142L141.433 195.446Z" fill="#1B1B1B"/>
<path d="M73.0709 303.011C73.0709 303.011 74.4345 339.211 72.1618 366.856C70.3436 389.583 68.1527 412.62 58.9709 433.61C55.8436 425.429 50.9982 418.629 45.9618 411.447C54.5345 414.174 53.4073 399.047 54.2891 393.911C55.8467 384.935 57.4891 375.977 59.2163 367.038C62.7163 348.965 61.58 350.129 65.8163 332.211C68.0163 322.911 73.0709 303.011 73.0709 303.011Z" fill="#F8EFE5"/>
<path d="M52.7619 450.773C49.4074 398.146 49.0529 357.655 33.1984 307.001C49.8711 329.774 55.6529 362.455 59.7256 389.664C63.7983 416.873 58.1619 416.819 57.7165 444.292L54.2074 437.755" fill="#EBC7B5"/>
<path d="M62.4472 447.174C60.5983 447.303 58.7691 447.636 56.9927 448.165C56.9927 448.047 57.0745 447.937 57.1109 447.819C65.82 423.092 68.4381 406.083 92.6562 378.492C80.0108 402.128 72.7473 424.965 66.2291 446.91L62.4472 447.174Z" fill="#F8EFE5"/>
<path d="M55.5939 448.61C52.6908 448.816 49.7878 449.007 46.8848 449.183C46.4759 446.359 46.2632 443.51 46.2484 440.656C47.1362 411.23 43.2181 381.857 34.6484 353.692C49.6831 374.063 58.3904 398.407 59.6848 423.692C60.0211 430.556 60.4393 439.456 59.4211 447.592C58.1212 447.833 56.8417 448.173 55.5939 448.61V448.61Z" fill="#F8EFE5"/>
<path d="M63.9724 447.064L62.4451 447.173C60.1052 447.335 57.7987 447.818 55.5906 448.609L52.7633 448.791C54.6451 438.082 56.8997 427.427 59.4088 416.855C63.2391 400.691 67.7845 384.712 73.0451 368.918C75.6815 361.04 78.4935 353.209 81.4814 345.428C83.2996 340.655 90.3359 323.782 90.3359 323.782C90.3359 323.782 79.1269 373.546 75.6905 393.1C72.5178 411.282 69.4542 429.455 63.9724 447.064Z" fill="#EBC7B5"/>
<path d="M59.4766 447.565C58.1581 447.815 56.8604 448.164 55.5948 448.61C53.0918 448.792 50.5827 448.956 48.0675 449.101C40.5857 417.119 26.4858 386.374 12.4585 356.02C37.3857 381.501 53.8038 413.883 59.4766 447.565Z" fill="#EBC7B5"/>
<path d="M28.1768 426.128C28.1768 441.528 40.9041 454.01 56.604 454.01C72.304 454.01 85.0312 441.528 85.0312 426.128H28.1768Z" fill="#F8EFE5"/>
<path d="M28.1768 422.581H85.0312V426.117H28.1768V422.581Z" fill="#1B1B1B"/>
<path d="M86.6406 438.128H28.1771" stroke="#1B1B1B" stroke-width="1.63787" stroke-linecap="round" stroke-linejoin="round"/>
<path d="M74.218 438.128L92.8906 494.837" stroke="#1B1B1B" stroke-width="1.63787" stroke-linecap="round" stroke-linejoin="round"/>
<path d="M40.5859 438.128L21.7587 495.291" stroke="#1B1B1B" stroke-width="1.63787" stroke-linecap="round" stroke-linejoin="round"/>
<path d="M192.188 488.101V480.892L194.461 476.901L200.925 472.646L209.843 450.41L208.398 442.619L210.343 439.419L226.888 440.328L230.016 442.055L231.052 444.655L233.434 442.283L240.07 434.492L239.507 430.474C239.507 430.474 241.934 430.474 243.607 433.565C245.279 436.655 249.016 441.992 249.016 448.637C249.016 455.283 230.325 479.592 230.325 479.592L223.779 488.074L192.188 488.101Z" fill="#F8EFE5"/>
<path d="M232.306 448.784L230.616 443.284C230.364 442.468 229.87 441.748 229.199 441.221C228.529 440.693 227.713 440.382 226.861 440.329L212.716 439.42C212.035 439.378 211.355 439.502 210.732 439.781C210.11 440.059 209.565 440.485 209.143 441.02C208.744 441.526 208.466 442.118 208.332 442.748C208.198 443.379 208.211 444.032 208.37 444.656L209.834 450.411L202.361 470.293C201.761 471.893 200.632 473.241 199.161 474.111L194.47 476.902C193.778 477.313 193.205 477.897 192.806 478.597C192.408 479.296 192.198 480.088 192.197 480.893V488.102H223.77C223.77 488.102 244.243 462.493 248.77 451.056C249.313 447.874 248.921 444.603 247.643 441.638C246.077 438.182 244.335 434.808 242.425 431.529C242.425 431.529 241.961 430.502 239.497 430.502C239.497 430.502 242.516 436.866 231.506 443.566" stroke="#1B1B1B" stroke-width="1.4059" stroke-linecap="round" stroke-linejoin="round"/>
<path d="M192.182 488.102V493.43C192.182 493.675 192.231 493.918 192.325 494.145C192.419 494.372 192.557 494.577 192.731 494.751C192.905 494.924 193.112 495.061 193.339 495.154C193.566 495.247 193.81 495.294 194.055 495.293L226.2 495.22C226.758 495.222 227.307 495.087 227.8 494.827C228.293 494.567 228.714 494.19 229.028 493.73L252.564 459.202C253.077 458.457 253.417 457.607 253.562 456.714C253.707 455.822 253.651 454.908 253.4 454.039C252.882 452.302 250.955 450.121 249.591 448.048" stroke="#1B1B1B" stroke-width="1.4059" stroke-linecap="round" stroke-linejoin="round"/>
<path d="M209.265 453.283L225.383 453.756" stroke="#1B1B1B" stroke-width="1.4059" stroke-linecap="round" stroke-linejoin="round"/>
<path d="M206.299 460.575L222.172 461.075" stroke="#1B1B1B" stroke-width="1.4059" stroke-linecap="round" stroke-linejoin="round"/>
<path d="M203.103 468.101L217.539 468.419" stroke="#1B1B1B" stroke-width="1.4059" stroke-linecap="round" stroke-linejoin="round"/>
<path d="M193.618 478.256H215.727" stroke="#1B1B1B" stroke-width="1.4059" stroke-linecap="round" stroke-linejoin="round"/>
<path d="M510.237 40.4759L598.922 30.4414L560.474 74.2652L510.237 40.4759Z" fill="#EBC7B5"/>
<path d="M598.922 30.4414L527.17 51.8624L535.88 76.397L536.659 58.2513L598.922 30.4414Z" fill="#EBC7B5"/>
<path d="M549.404 66.8219L535.878 76.3967L536.657 58.251L549.404 66.8219Z" fill="#EBC7B5"/>
<path d="M581.141 38.7773L537.211 59.384L536.005 74.7598" stroke="#1B1B1B" stroke-width="1.5" stroke-linecap="round" stroke-linejoin="round"/>
<path d="M560.474 74.2652L598.922 30.4414L550.539 35.9168" stroke="#1B1B1B" stroke-width="1.5" stroke-linecap="round" stroke-linejoin="round"/>
</svg>
