<svg width="218" height="199" viewBox="0 0 218 199" fill="none" xmlns="http://www.w3.org/2000/svg">
<g clip-path="url(#clip0_2504_4267)">
<path d="M147.289 136.185L147.364 136.122L147.416 136.039L197.31 56.7759C207.773 64.1282 216.604 73.5684 223.244 84.5035C229.999 95.6281 234.336 108.05 235.971 120.96C237.606 133.869 236.503 146.976 232.733 159.427C228.964 171.877 222.613 183.391 214.094 193.218C205.575 203.045 195.08 210.964 183.293 216.459C171.506 221.954 158.691 224.902 145.684 225.11C132.678 225.319 119.771 222.783 107.806 217.668C96.0452 212.64 85.4535 205.232 76.697 195.912L147.289 136.185Z" fill="#0F86A1" stroke="#3C8AAC" stroke-width="1.27325"/>
<path d="M145.695 225.747C132.599 225.957 119.604 223.403 107.556 218.253C95.5089 213.103 84.68 205.472 75.7756 195.857L146.877 135.699L197.127 55.8721C207.902 63.3288 216.986 72.9721 223.788 84.1732C230.59 95.3743 234.956 107.882 236.603 120.88C236.778 122.267 236.922 123.656 237.035 125.047M183.562 217.036C195.43 211.503 205.998 203.53 214.575 193.635C223.152 183.741 229.547 172.148 233.343 159.612C233.531 158.988 233.714 158.363 233.889 157.736" stroke="#1B1B1B" stroke-width="1.69056"/>
<path d="M51.4419 122.689C49.0363 145.524 55.141 168.449 68.586 187.072L134.099 135.101L51.4419 122.689Z" fill="#9B5C8F"/>
<path d="M82.829 127.402L51.4419 122.689C50.6474 130.231 50.7812 137.783 51.8013 145.186M103.599 130.521L134.099 135.101L92.566 168.049M80.576 177.561L68.586 187.072C62.4497 178.573 57.8424 169.177 54.8753 159.303" stroke="#1B1B1B" stroke-width="1.69057"/>
<path d="M188.73 50.9732C176.028 43.9838 161.867 40.0654 147.384 39.5321C132.9 38.9987 118.495 41.8651 105.323 47.9017C92.151 53.9383 80.5775 62.9774 71.5295 74.295C62.4816 85.6126 56.2106 98.8942 53.2188 113.076L141.723 126.364L188.73 50.9732Z" fill="#F8EFE5"/>
<path d="M147.384 39.5321C161.867 40.0654 176.028 43.9837 188.73 50.9732L141.723 126.364C128.349 124.356 117.248 122.69 106.662 121.1M71.5295 74.295C80.5775 62.9774 92.151 53.9383 105.323 47.9017C112.131 44.7817 119.268 42.5086 126.575 41.114M60.1376 92.5383C57.0477 99.0678 54.7203 105.959 53.2188 113.076C62.1897 114.423 70.1377 115.616 77.5938 116.736" stroke="#1B1B1B" stroke-width="1.69057"/>
<path d="M168.917 130.29C169.6 131.876 173.729 131.932 173.729 131.932L212.961 130.926C212.961 130.926 217.269 130.296 218.693 129.488C219.938 128.782 220.264 125.126 220.264 125.126C220.264 125.126 220.765 111.063 216.426 101.557C212.566 93.0974 202.454 84.2856 202.454 84.2856C202.454 84.2856 200.025 82.0815 197.642 82.6434C196.156 82.9939 193.823 86.6682 193.823 86.6682L169.521 126.242C169.521 126.242 168.234 128.706 168.917 130.29Z" fill="#EBC7B5"/>
<path d="M173.736 131.928L212.968 130.922C212.968 130.922 217.276 130.291 218.7 129.484C219.945 128.778 220.271 125.121 220.271 125.121M169.528 126.238L193.83 86.6641C193.83 86.6641 196.163 82.9898 197.649 82.6393C200.032 82.0774 202.461 84.2815 202.461 84.2815C202.461 84.2815 212.572 93.0932 216.433 101.553" stroke="#1B1B1B" stroke-width="1.69057"/>
<path opacity="0.7" fill-rule="evenodd" clip-rule="evenodd" d="M13.5275 175.547C10.8076 177.562 7.0014 178.603 4.26646 176.366C1.53027 174.129 1.80499 170.154 3.00102 166.937C4.12504 163.915 6.53517 161.283 9.76839 161.57C12.861 161.845 14.6702 164.99 15.4926 168.047C16.251 170.867 15.7833 173.875 13.5275 175.547Z" fill="#3C8AAC"/>
<path d="M205.189 33.5189C202.717 33.5161 200.71 31.5216 200.708 29.064C200.705 26.6063 202.707 24.6163 205.179 24.619C207.652 24.6218 209.658 26.6163 209.661 29.074C209.664 31.5316 207.662 33.5217 205.189 33.5189Z" fill="#1B1B1B"/>
<path d="M125.958 -0.192117C131.453 -0.185989 135.266 4.19887 134.476 9.60173C133.686 15.0046 128.591 19.3795 123.097 19.3734C117.603 19.3673 113.789 14.9824 114.579 9.57954C115.369 4.17667 120.464 -0.198246 125.958 -0.192117Z" fill="#EBC7B5"/>
<path d="M40.9758 52.453C40.9813 57.3757 36.9756 61.3696 32.0191 61.3641C27.0626 61.3586 23.0479 57.3556 23.0424 52.433C23.0369 47.5103 27.0426 43.5163 31.9991 43.5219C36.9556 43.5274 40.9703 47.5303 40.9758 52.453Z" stroke="#1B1B1B" stroke-width="2"/>
</g>
<defs>
<clipPath id="clip0_2504_4267">
<rect width="218" height="199" fill="white"/>
</clipPath>
</defs>
</svg>
